<?xml version="1.0" standalone="no"?>
<!DOCTYPE svg PUBLIC "-//W3C//DTD SVG 20010904//EN"
 "http://www.w3.org/TR/2001/REC-SVG-20010904/DTD/svg10.dtd">
<svg version="1.0" xmlns="http://www.w3.org/2000/svg"
 width="512.000000pt" height="512.000000pt" viewBox="0 0 512.000000 512.000000"
 preserveAspectRatio="xMidYMid meet">
<metadata>
Created by potrace 1.11, written by Peter Selinger 2001-2013
</metadata>
<g transform="translate(0.000000,512.000000) scale(0.100000,-0.100000)"
fill="#000000" stroke="none">
<path d="M2410 5094 c-487 -42 -882 -177 -1260 -429 -518 -346 -893 -874
-1045 -1469 -111 -436 -111 -836 0 -1272 232 -912 978 -1631 1905 -1839 198
-45 331 -59 560 -59 229 0 362 14 560 59 637 143 1200 529 1564 1074 l56 84 0
264 0 263 -65 0 -65 0 0 60 0 60 145 0 145 0 1 -162 0 -163 21 45 c35 79 95
271 123 395 90 401 83 785 -20 1191 -105 409 -322 800 -617 1109 -402 421
-928 690 -1508 770 -112 15 -411 27 -500 19z m-698 -1616 l3 -853 57 110 c31
61 277 443 546 850 l488 740 482 3 482 2 -78 -107 c-645 -886 -1155 -1588
-1159 -1599 -2 -7 186 -276 419 -599 l423 -586 3 95 3 96 99 0 100 0 0 -57 1
-58 19 36 c26 50 72 86 119 94 74 12 81 5 81 -90 l0 -84 -56 6 c-73 8 -116
-14 -144 -72 -28 -58 -29 -240 -2 -276 11 -13 78 -106 151 -207 l131 -182
-512 2 -511 3 -183 274 c-167 250 -183 271 -189 245 -19 -94 -38 -136 -86
-188 -69 -76 -131 -99 -260 -100 -89 0 -102 3 -162 32 -74 37 -110 73 -143
147 -30 66 -38 146 -24 225 15 81 39 129 92 180 64 61 132 83 254 84 l101 0
-224 333 c-131 195 -244 374 -271 431 l-47 97 -3 -883 -2 -882 -74 0 c-41 0
-78 -5 -81 -10 -19 -30 -132 -55 -205 -45 -44 6 -50 10 -50 31 l0 24 -200 0
-200 0 0 1795 0 1795 405 0 405 0 2 -852z m2686 -1852 c38 -20 68 -54 89 -101
14 -34 18 -80 21 -287 l4 -248 -100 0 -101 0 -3 226 -3 226 -33 29 c-46 41
-91 40 -140 -5 l-37 -34 -3 -221 -3 -221 -100 0 -99 0 0 320 0 320 100 0 100
0 0 -50 0 -50 41 45 c51 55 110 77 187 70 30 -3 66 -12 80 -19z"/>
<path d="M2072 1480 c-46 -29 -72 -89 -72 -173 0 -77 15 -121 55 -157 22 -21
36 -25 90 -25 57 0 67 3 94 29 38 36 51 80 51 166 0 85 -25 141 -73 163 -47
23 -105 21 -145 -3z"/>
</g>
</svg>
